<svg width="44" height="31" viewBox="0 0 44 31" fill="none" xmlns="http://www.w3.org/2000/svg">
<path fill-rule="evenodd" clip-rule="evenodd" d="M-0.0078125 2.21109C-0.0078125 1.29196 0.737276 0.546875 1.6564 0.546875H41.5975C42.5167 0.546875 43.2618 1.29196 43.2618 2.21109C43.2618 3.13027 42.5167 3.8753 41.5975 3.8753H1.6564C0.737276 3.8753 -0.0078125 3.13027 -0.0078125 2.21109Z" fill="white"/>
<path fill-rule="evenodd" clip-rule="evenodd" d="M-0.0078125 28.8361C-0.0078125 27.9169 0.737276 27.1719 1.6564 27.1719H41.5975C42.5167 27.1719 43.2618 27.9169 43.2618 28.8361C43.2618 29.7553 42.5167 30.5003 41.5975 30.5003H1.6564C0.737276 30.5003 -0.0078125 29.7553 -0.0078125 28.8361Z" fill="white"/>
<path fill-rule="evenodd" clip-rule="evenodd" d="M8.86719 15.5236C8.86719 14.6044 9.61222 13.8594 10.5314 13.8594H41.5967C42.5159 13.8594 43.2609 14.6044 43.2609 15.5236C43.2609 16.4428 42.5159 17.1878 41.5967 17.1878H10.5314C9.61222 17.1878 8.86719 16.4428 8.86719 15.5236Z" fill="white"/>
</svg>
