<svg width="26" height="26" viewBox="0 0 26 26" fill="none" xmlns="http://www.w3.org/2000/svg">
<path d="M24.3341 6.95726C23.247 5.69513 21.7554 5 20.1336 5C18.9214 5 17.8113 5.41025 16.834 6.21926C16.3408 6.62762 15.894 7.12723 15.5 7.71036C15.1062 7.1274 14.6592 6.62762 14.1659 6.21926C13.1887 5.41025 12.0786 5 10.8664 5C9.24464 5 7.75285 5.69513 6.66578 6.95726C5.59168 8.20464 5 9.90876 5 11.7559C5 13.6571 5.66186 15.3974 7.08282 17.2329C8.35399 18.8747 10.1809 20.5415 12.2966 22.4714C13.019 23.1306 13.8379 23.8776 14.6882 24.6734C14.9128 24.8841 15.201 25 15.5 25C15.7988 25 16.0872 24.8841 16.3115 24.6738C17.1618 23.8778 17.9811 23.1304 18.7039 22.4709C20.8192 20.5413 22.6462 18.8747 23.9173 17.2327C25.3383 15.3974 26 13.6571 26 11.7557C26 9.90876 25.4083 8.20464 24.3341 6.95726Z" fill="black"/>
</svg>
